<?xml version="1.0" standalone="no"?>
<!DOCTYPE svg PUBLIC "-//W3C//DTD SVG 20010904//EN"
 "http://www.w3.org/TR/2001/REC-SVG-20010904/DTD/svg10.dtd">
<svg version="1.0" xmlns="http://www.w3.org/2000/svg"
 width="512.000000pt" height="512.000000pt" viewBox="0 0 512.000000 512.000000"
 preserveAspectRatio="xMidYMid meet">

<g transform="translate(0.000000,512.000000) scale(0.100000,-0.100000)"
fill="#000000" stroke="none">
<path d="M507 3001 c-16 -6 -15 -11 16 -51 18 -25 43 -61 54 -80 30 -49 73
-182 73 -224 0 -19 7 -42 15 -50 16 -16 105 -46 136 -46 38 0 32 109 -12 237
-23 67 -56 121 -113 181 -38 40 -43 42 -96 41 -30 0 -63 -4 -73 -8z"/>
<path d="M790 2964 c0 -3 13 -25 30 -49 48 -70 90 -216 90 -319 l0 -59 43 6
c23 2 55 10 71 16 27 11 28 14 23 59 -16 125 -81 238 -182 314 -45 34 -75 47
-75 32z"/>
<path d="M312 2893 c-85 -85 -142 -214 -142 -322 0 -49 13 -53 31 -9 33 80
218 268 264 268 28 0 23 31 -13 74 -50 61 -69 59 -140 -11z"/>
<path d="M470 2739 c-99 -68 -167 -149 -210 -249 -32 -76 -39 -114 -26 -136
22 -39 60 -84 70 -84 6 0 28 37 49 81 31 66 55 98 128 170 49 49 89 96 89 104
0 18 -27 122 -35 135 -9 15 -15 12 -65 -21z"/>
<path d="M1531 2746 c-8 -9 -11 -85 -9 -247 l3 -234 75 -5 c113 -8 194 3 235
31 80 55 75 166 -8 207 -36 18 -34 37 8 76 27 26 35 41 35 69 0 50 -7 64 -46
88 -29 17 -54 21 -158 25 -96 3 -126 1 -135 -10z m199 -59 c67 -34 56 -112
-19 -137 -32 -10 -47 -11 -66 -2 -22 10 -25 17 -25 70 0 32 5 63 12 70 16 16
66 15 98 -1z m29 -220 c52 -25 47 -106 -9 -134 -39 -20 -117 -17 -128 5 -12
25 -6 121 9 139 14 16 84 11 128 -10z"/>
<path d="M4873 2707 c-25 -7 -33 -16 -33 -33 0 -35 -11 -55 -36 -65 -30 -11
-34 -59 -6 -59 35 0 42 -21 42 -127 0 -56 5 -113 11 -127 18 -39 75 -57 132
-42 22 5 28 12 25 29 -2 14 -11 23 -24 25 -46 6 -55 32 -52 138 l3 99 35 5
c29 4 35 9 35 30 0 21 -6 26 -35 30 -34 5 -35 7 -40 54 -6 55 -10 58 -57 43z"/>
<path d="M2142 2590 c-18 -16 -35 -30 -38 -30 -2 0 -9 12 -14 26 -9 22 -15 25
-47 22 l-38 -3 -3 -173 -2 -173 42 3 43 3 5 112 c4 100 7 114 29 137 15 16 37
26 60 28 34 3 36 5 36 38 0 47 -29 51 -73 10z"/>
<path d="M2375 2601 c-51 -23 -69 -44 -89 -103 -38 -115 27 -233 137 -245 143
-16 227 48 230 176 2 93 -41 159 -118 180 -58 16 -114 13 -160 -8z m133 -52
c35 -12 55 -51 55 -112 1 -65 -10 -95 -43 -112 -48 -25 -88 -19 -121 16 -25
27 -29 39 -29 88 1 63 16 97 51 117 30 16 47 17 87 3z"/>
<path d="M2935 2610 c-12 -4 -27 -15 -34 -24 -18 -22 -38 -20 -51 5 -9 16 -19
19 -48 17 l-37 -3 0 -170 0 -170 40 0 40 0 5 123 c5 120 6 124 33 148 34 29
67 31 98 5 22 -18 24 -28 29 -148 l5 -128 40 0 40 0 3 105 c2 58 0 125 -3 149
-12 80 -85 122 -160 91z"/>
<path d="M3270 2609 c-48 -19 -70 -49 -70 -96 0 -53 20 -75 101 -110 61 -27
85 -61 60 -86 -11 -11 -101 -14 -146 -6 -11 2 -20 -2 -22 -11 -13 -66 158 -74
229 -11 24 21 31 36 32 68 1 52 -20 76 -85 99 -48 18 -89 46 -89 62 0 5 6 17
14 28 12 15 26 19 75 18 57 -1 61 0 61 21 0 13 -7 26 -16 29 -24 9 -116 6
-144 -5z"/>
<path d="M3705 2594 l-38 -25 -21 20 c-25 23 -68 28 -83 9 -6 -8 -9 -116 -8
-263 l1 -250 42 -3 42 -3 0 90 c0 69 4 93 16 106 15 15 18 15 38 -3 32 -29 76
-33 121 -13 22 10 48 27 57 38 27 30 48 100 48 157 -2 133 -116 208 -215 140z
m74 -49 c47 -24 65 -103 37 -169 -28 -66 -88 -84 -141 -42 -28 23 -30 28 -30
94 0 56 4 74 20 92 36 40 71 48 114 25z"/>
<path d="M4104 2601 c-101 -46 -135 -177 -71 -278 56 -89 189 -104 286 -32 60
44 80 163 41 239 -40 78 -164 113 -256 71z m130 -55 c55 -23 74 -117 37 -186
-22 -41 -54 -55 -105 -46 -64 12 -94 97 -62 180 24 62 66 79 130 52z"/>
<path d="M4627 2590 l-35 -30 -16 25 c-19 28 -66 34 -85 11 -8 -9 -11 -64 -9
-172 l3 -159 43 -3 c29 -2 42 1 43 10 0 7 0 45 -1 83 -1 120 32 185 96 185 28
0 32 4 37 33 2 17 3 35 0 40 -9 16 -44 6 -76 -23z"/>
<path d="M574 2498 c-52 -41 -84 -75 -84 -92 0 -9 5 -16 12 -16 6 0 19 -6 27
-14 76 -68 357 -94 439 -40 25 17 75 112 65 127 -3 4 -24 5 -47 1 -95 -17
-216 -3 -319 36 -64 24 -57 25 -93 -2z"/>
<path d="M419 2303 c-39 -100 -39 -101 -16 -116 65 -42 200 -64 283 -47 65 14
174 58 174 71 0 5 -28 9 -62 9 -92 0 -189 24 -276 67 -42 21 -80 39 -84 41 -5
2 -13 -9 -19 -25z"/>
</g>
</svg>
